:SAMPLES-PER-SECOND 30
:FULLY-SPECIFIED
:DEGREES
530
root  -19.7854 30.1747 -16.0931 -132.616 1.36618 82.5399
Spine  1.94503 0.916291 16.4745
Spine1  1.61031 -10.0301 0.247713
Neck  3.97569e-016 0 -2.38542e-015
Head  13.1521 -2.3864 -0.799062
R_Clavicle  0.344916 -20.1511 -1.87179
R_UpperArm  36.0644 -8.75985 32.9353
R_Forearm  8.31655 -29.8421 22.1549
R_Hand  0.590824 4.36881 -2.13549
L_Clavicle  -0.498157 17.3251 -0.564895
L_UpperArm  -5.14543 -8.42157 23.7492
L_Forearm  -6.1239 26.3477 34.5565
L_Hand  0.203256 3.62421 2.67404
L_Thigh  7.99894 -3.13592 19.9218
L_Calf  22.6067 -1.5708 11.6571
L_Foot  3.43069 7.49518 5.86726
L_Toe0  0.505158 0.0321374 -6.13612
R_Thigh  10.5033 -15.4431 -10.1685
R_Calf  20.9524 1.38224 4.37509
R_Foot  3.24551 10.5722 -10.1643
R_Toe0  15.249 -3.30991 -7.47511
531
root  -19.4496 30.5468 -16.8456 -130.821 0.419037 83.754
Spine  1.64423 -0.366541 13.3838
Spine1  1.73977 -8.89066 0.642024
Neck  3.97569e-016 0 -2.38542e-015
Head  13.5728 -0.983937 0.298917
R_Clavicle  0.407325 -21.8005 -1.76703
R_UpperArm  27.6266 -8.91821 33.1291
R_Forearm  12.9406 -27.035 21.2464
R_Hand  0.420608 4.74073 -4.38299
L_Clavicle  -0.512712 18.2502 0.279744
L_UpperArm  -13.0629 -6.23256 23.3801
L_Forearm  -11.0154 25.867 34.0122
L_Hand  -0.0835737 2.95794 -1.02042
L_Thigh  9.47507 -4.16209 16.2454
L_Calf  21.4018 -1.77718 13.2154
L_Foot  3.73169 8.33188 6.06187
L_Toe0  0.505156 0.0319038 -6.13612
R_Thigh  10.9381 -10.9686 -10.3581
R_Calf  19.9013 0.983048 3.11947
R_Foot  3.03303 9.8305 -7.1939
R_Toe0  17.0119 -3.80563 -6.98429
532
root  -19.2012 30.9233 -17.5669 -129.758 -0.411438 84.812
Spine  1.5646 -1.16413 10.5558
Spine1  1.94268 -8.42315 0.308865
Neck  3.97569e-016 0 -2.38542e-015
Head  14.1899 0.135037 2.16372
R_Clavicle  0.425076 -22.2803 -1.71417
R_UpperArm  20.3013 -8.7442 33.0013
R_Forearm  15.7395 -24.228 20.6019
R_Hand  0.297856 5.42271 -6.4005
L_Clavicle  -0.51234 18.8368 0.897991
L_UpperArm  -19.5218 -3.58133 22.7542
L_Forearm  -15.2327 25.2204 32.9517
L_Hand  -0.268681 2.99686 -3.45029
L_Thigh  10.0942 -4.6115 12.7737
L_Calf  20.496 -2.01708 15.0072
L_Foot  3.95217 9.14005 5.99968
L_Toe0  0.498082 0.0317242 -6.14319
R_Thigh  11.261 -6.9523 -9.75386
R_Calf  18.539 0.937551 2.96668
R_Foot  2.68988 8.68394 -4.66451
R_Toe0  17.0036 -3.90949 -6.36383
533
root  -19.0467 31.3008 -18.2373 -129.317 -1.19495 85.6858
Spine  1.61637 -1.52295 8.16784
Spine1  2.17716 -8.57225 -0.848283
Neck  3.97569e-016 0 -2.38542e-015
Head  15.0218 0.931483 4.5745
R_Clavicle  0.424088 -22.253 -1.68655
R_UpperArm  17.0769 -8.23756 32.872
R_Forearm  15.4972 -21.9438 19.5696
R_Hand  0.30802 5.9108 -6.86401
L_Clavicle  -0.505077 18.8774 1.21176
L_UpperArm  -24.1344 -0.617481 22.0374
L_Forearm  -16.8834 24.4439 31.658
L_Hand  -0.311439 3.07321 -3.97751
L_Thigh  9.55168 -4.74094 9.53583
L_Calf  19.6432 -2.2893 17.0198
L_Foot  4.12844 10.2633 5.48745
L_Toe0  0.574327 0.0310667 -6.09696
R_Thigh  11.5112 -3.45967 -8.65029
R_Calf  15.3254 1.23887 3.88925
R_Foot  2.22246 7.23873 -2.3715
R_Toe0  12.6583 -3.6367 -2.34999
534
root  -18.9857 31.653 -18.8639 -129.346 -2.18948 86.2848
Spine  1.67539 -1.82383 6.11446
Spine1  2.39672 -8.96792 -2.23684
Neck  3.97569e-016 0 -2.38542e-015
Head  16.1212 1.39356 7.10602
R_Clavicle  0.426431 -22.3231 -1.49427
R_UpperArm  16.7679 -6.55291 32.7109
R_Forearm  14.2655 -20.7594 18.3357
R_Hand  0.260903 5.93496 -7.30681
L_Clavicle  -0.502151 18.8448 1.3033
L_UpperArm  -25.7973 1.58886 21.3157
L_Forearm  -16.1811 23.832 30.6653
L_Hand  -0.292008 2.9267 -3.79036
L_Thigh  8.77968 -5.2085 6.50381
L_Calf  18.4911 -2.53494 18.8795
L_Foot  4.17729 11.5726 4.42302
L_Toe0  0.753027 0.0264604 -5.60384
R_Thigh  11.0124 -0.658953 -7.65554
R_Calf  9.05429 1.96267 6.10177
R_Foot  1.64422 5.48031 -0.715036
R_Toe0  5.66176 -2.0224 3.48931
535
root  -18.9809 31.9854 -19.4704 -129.861 -3.2645 86.7707
Spine  1.86905 -1.84207 4.03773
Spine1  2.67031 -9.61349 -3.29626
Neck  3.97569e-016 0 -2.38542e-015
Head  17.4077 1.39629 9.67373
R_Clavicle  0.421675 -22.1836 -1.15909
R_UpperArm  16.9172 -4.07316 31.9425
R_Forearm  15.0175 -20.4098 17.9802
R_Hand  0.0768561 6.17708 -9.17348
L_Clavicle  -0.508319 19.1289 1.25825
L_UpperArm  -23.8933 2.25987 20.6025
L_Forearm  -14.2423 23.7581 30.5469
L_Hand  -0.299488 2.78649 -3.9618
L_Thigh  8.48495 -5.77416 3.39763
L_Calf  17.4233 -2.80882 21.0169
L_Foot  4.08292 12.4392 3.3542
L_Toe0  0.514918 0.0205003 -4.9584
R_Thigh  9.6959 1.69213 -7.21941
R_Calf  2.65374 3.2772 10.1717
R_Foot  0.808651 3.15415 1.15102
R_Toe0  -1.18272 0.416894 3.36701
536
root  -18.9885 32.2777 -20.0672 -130.721 -4.18311 87.3977
Spine  2.26567 -1.12305 1.82642
Spine1  3.0196 -10.6705 -4.15585
Neck  3.97569e-016 0 -2.38542e-015
Head  18.6082 1.02802 12.5337
R_Clavicle  0.397576 -21.3612 -0.995116
R_UpperArm  18.4178 -2.19898 30.6317
R_Forearm  17.12 -20.6419 18.2124
R_Hand  -0.213053 6.94868 -12.2227
L_Clavicle  -0.514693 19.1176 1.03282
L_UpperArm  -19.7466 2.35138 19.962
L_Forearm  -11.6199 24.0763 31.0596
L_Hand  -0.276903 2.6815 -3.70859
L_Thigh  8.39953 -5.87933 -0.104597
L_Calf  16.7328 -3.19765 24.0693
L_Foot  4.06783 12.5827 3.18684
L_Toe0  0.738125 0.0274349 -5.77495
R_Thigh  8.76518 3.72754 -7.63065
R_Calf  0.861333 5.18579 16.2578
R_Foot  -0.548666 0.0661302 4.93035
R_Toe0  -4.50344 0.588163 -8.32945
537
root  -19.0157 32.4345 -20.6555 -131.554 -5.3161 87.9633
Spine  2.58347 -0.369527 -0.235588
Spine1  3.30994 -11.665 -5.14371
Neck  3.97569e-016 0 -2.38542e-015
Head  19.6179 0.658012 15.6652
R_Clavicle  0.351579 -19.8516 -1.07046
R_UpperArm  21.1808 -1.24706 29.3159
R_Forearm  19.0876 -20.7582 18.3294
R_Hand  -0.535924 7.84197 -15.2542
L_Clavicle  -0.507676 18.2895 0.581692
L_UpperArm  -15.3274 3.07912 19.5044
L_Forearm  -8.6011 24.3623 31.5247
L_Hand  -0.161506 2.79658 -2.06613
L_Thigh  8.25054 -6.38658 -3.15319
L_Calf  15.8964 -3.40045 25.9084
L_Foot  4.26177 12.9013 3.52564
L_Toe0  0.486457 0.0306641 -6.17253
R_Thigh  8.78438 4.50985 -8.84783
R_Calf  3.4216 7.33051 23.4181
R_Foot  -2.08005 -3.91988 6.1943
R_Toe0  -2.97303 -0.127957 -14.6086
538
root  -19.0936 32.4372 -21.2337 -132.242 -7.06567 88.1053
Spine  2.68051 -0.648257 -2.08913
Spine1  3.47619 -11.8483 -5.91374
Neck  3.97569e-016 0 -2.38542e-015
Head  20.65 0.47341 18.4027
R_Clavicle  0.308958 -18.2611 -0.934164
R_UpperArm  23.8273 0.131656 28.0253
R_Forearm  20.2514 -20.3995 17.9717
R_Hand  -0.753339 8.57169 -17.1402
L_Clavicle  -0.502411 17.7829 0.121642
L_UpperArm  -10.3702 3.39584 19.0197
L_Forearm  -6.74548 24.6674 32.0413
L_Hand  -0.0214006 3.26291 -0.145256
L_Thigh  8.50877 -8.19803 -5.66527
L_Calf  13.9529 -3.31713 26.0744
L_Foot  4.68921 13.7002 4.17584
L_Toe0  0.505156 0.0300607 -6.13614
R_Thigh  8.54091 3.42317 -9.77211
R_Calf  6.48828 8.14301 26.3206
R_Foot  -2.53537 -4.98349 6.71108
R_Toe0  -1.6345 -0.276711 -17.177
539
root  -19.2266 32.3848 -21.7687 -133.002 -8.95923 87.9237
Spine  2.8455 -1.41802 -4.15368
Spine1  3.63513 -11.526 -5.61381
Neck  3.97569e-016 0 -2.38542e-015
Head  21.8308 0.552126 19.9367
R_Clavicle  0.317347 -17.5127 -0.265165
R_UpperArm  25.7057 2.95945 26.6264
R_Forearm  20.8537 -19.7131 17.2931
R_Hand  -0.900448 9.08966 -18.3299
L_Clavicle  -0.543981 19.1136 0.0324604
L_UpperArm  -2.75387 1.19141 17.8458
L_Forearm  -7.98096 25.4496 33.3265
L_Hand  0.0244462 3.50644 0.446146
L_Thigh  9.29381 -10.5801 -7.82287
L_Calf  11.5443 -3.21714 25.9641
L_Foot  4.91092 13.9206 4.66388
L_Toe0  0.505156 0.0297728 -6.13614
R_Thigh  6.85608 1.47357 -10.098
R_Calf  7.61897 7.57486 24.4251
R_Foot  -2.00675 -3.22166 7.29535
R_Toe0  -1.79178 -0.273826 -17.3576
